<svg id="Capa_1" enable-background="new 0 0 512 512" height="512" viewBox="0 0 512 512" width="512"
     xmlns="http://www.w3.org/2000/svg">
    <g>
        <path d="m363.013 182.581h-214.026c-8.284 0-15 6.716-15 15v116.342c0 8.284 6.716 15 15 15h214.026c8.284 0 15-6.716 15-15v-116.342c0-8.285-6.716-15-15-15z"
              fill="#fff5f5"/>
        <path d="m378.013 313.923v-116.342c0-8.284-6.716-15-15-15h-107.013v146.342h107.013c8.284 0 15-6.716 15-15z"
              fill="#eee1dd"/>
        <path d="m255.995 230.098c-20.68 0-37.505 16.825-37.505 37.505v36.32c0 4.142 3.358 7.5 7.5 7.5h60.021c4.142 0 7.5-3.358 7.5-7.5v-36.32c-.001-20.681-16.825-37.505-37.516-37.505z"
              fill="#766d6d"/>
        <path d="m256 230.098v81.325h30.01c4.142 0 7.5-3.358 7.5-7.5v-36.32c0-20.679-16.822-37.502-37.51-37.505z"
              fill="#5c5455"/>
        <path d="m385.372 298.923h-258.744c-8.284 0-15 6.716-15 15v60.021c0 8.284 6.716 15 15 15h258.743c8.284 0 15-6.716 15-15v-60.021c.001-8.284-6.715-15-14.999-15z"
              fill="#eee1dd"/>
        <path d="m385.372 298.923h-129.372v90.021h129.372c8.284 0 15-6.716 15-15v-60.021c0-8.284-6.716-15-15-15z"
              fill="#ccbeb9"/>
        <path d="m282.279 26.279h-11.279v-11.279c0-8.284-6.716-15-15-15s-15 6.716-15 15v11.279h-11.279c-8.284 0-15 6.716-15 15s6.716 15 15 15h11.279v34.288c0 8.284 6.716 15 15 15s15-6.716 15-15v-34.288h11.279c8.284 0 15-6.716 15-15s-6.716-15-15-15z"
              fill="#eee1dd"/>
        <path d="m271 90.567v-34.288h11.279c8.284 0 15-6.716 15-15s-6.716-15-15-15h-11.279v-11.279c0-8.284-6.716-15-15-15v105.567c8.284 0 15-6.716 15-15z"
              fill="#ccbeb9"/>
        <path d="m378.013 197.581c0-67.279-54.735-122.014-122.013-122.014s-122.013 54.735-122.013 122.014z"
              fill="#b1d5f1"/>
        <path d="m256 75.567v122.014h122.013c0-67.279-54.735-122.014-122.013-122.014z" fill="#8bb9ff"/>
        <path d="m420.05 358.943h-328.1c-8.284 0-15 6.716-15 15v123.057c0 8.284 6.716 15 15 15h328.1c8.284 0 15-6.716 15-15v-123.057c0-8.284-6.716-15-15-15z"
              fill="#fff5f5"/>
        <path d="m420.05 358.943h-164.05v153.057h164.05c8.284 0 15-6.716 15-15v-123.057c0-8.284-6.716-15-15-15z"
              fill="#eee1dd"/>
        <path d="m173.975 461.983c-8.284 0-15-6.716-15-15v-23.023c0-8.284 6.716-15 15-15s15 6.716 15 15v23.022c0 8.285-6.716 15.001-15 15.001z"
              fill="#766d6d"/>
        <path d="m338.025 461.983c-8.284 0-15-6.716-15-15v-23.023c0-8.284 6.716-15 15-15s15 6.716 15 15v23.022c0 8.285-6.716 15.001-15 15.001z"
              fill="#5c5455"/>
        <path d="m256 461.983c-8.284 0-15-6.716-15-15v-23.023c0-8.284 6.716-15 15-15s15 6.716 15 15v23.022c0 8.285-6.716 15.001-15 15.001z"
              fill="#766d6d"/>
        <path d="m271 446.983v-23.023c0-8.284-6.716-15-15-15v53.022c8.284.001 15-6.715 15-14.999z" fill="#5c5455"/>
    </g>
</svg>